
<svg width="100%" viewBox="8 0 14 10" style="font-family: sans-serif; font-size: 11px; max-width: 100%;"><g><g id="lines" transform="translate(0,2)"><line x1="0" x2="14" y1="0" y2="0" stroke-width="0.1" stroke="#222" transform="translate(8,1)"></line><line x1="0" x2="14" y1="0" y2="0" stroke-width="0.1" stroke="#222" transform="translate(8,2)"></line><line x1="0" x2="14" y1="0" y2="0" stroke-width="0.1" stroke="#222" transform="translate(8,3)"></line><line x1="0" x2="14" y1="0" y2="0" stroke-width="0.1" stroke="#222" transform="translate(8,4)"></line><line x1="0" x2="14" y1="0" y2="0" stroke-width="0.1" stroke="#222" transform="translate(8,5)"></line></g><g id="clef" transform="translate(0,2)"><path d="M557 -125c0 28 23 51 51 51s51 -23 51 -51s-23 -51 -51 -51s-51 23 -51 51zM557 125c0 28 23 51 51 51s51 -23 51 -51s-23 -51 -51 -51s-51 23 -51 51zM232 263c172 0 293 -88 293 -251c0 -263 -263 -414 -516 -521c-3 -3 -6 -4 -9 -4c-7 0 -13 6 -13 13c0 3 1 6 4 9 c202 118 412 265 412 493c0 120 -63 235 -171 235c-74 0 -129 -54 -154 -126c11 5 22 8 34 8c55 0 100 -45 100 -100c0 -58 -44 -106 -100 -106c-60 0 -112 47 -112 106c0 133 102 244 232 244z" fill="#222" transform="translate(8.8,2) scale(0.004, -0.004)"></path></g><g id="notes" transform="translate(3,0)"><g id="noteHeads"><g transform="translate(0,0)"><g transform="translate(14,1.5)"><path d="M213 112c-50 0 -69 -43 -69 -88c0 -77 57 -136 134 -136c50 0 69 43 69 88c0 77 -57 136 -134 136zM491 0c0 -43 -34 -75 -72 -96c-53 -29 -114 -40 -174 -40s-120 11 -173 40c-38 21 -72 53 -72 96s34 75 72 96c53 29 113 40 173 40s121 -11 174 -40 c38 -21 72 -53 72 -96z" fill="#222" transform="translate(0,3) scale(0.004, -0.004)"></path></g><g transform="translate(0,5)"></g></g><g transform="translate(0,0)"><g transform="translate(14,0.5)"><path d="M213 112c-50 0 -69 -43 -69 -88c0 -77 57 -136 134 -136c50 0 69 43 69 88c0 77 -57 136 -134 136zM491 0c0 -43 -34 -75 -72 -96c-53 -29 -114 -40 -174 -40s-120 11 -173 40c-38 21 -72 53 -72 96s34 75 72 96c53 29 113 40 173 40s121 -11 174 -40 c38 -21 72 -53 72 -96z" fill="#222" transform="translate(0,3) scale(0.004, -0.004)"></path></g><g transform="translate(0,5)"></g></g><g transform="translate(1.7,0)"><g transform="translate(14,0)"><path d="M213 112c-50 0 -69 -43 -69 -88c0 -77 57 -136 134 -136c50 0 69 43 69 88c0 77 -57 136 -134 136zM491 0c0 -43 -34 -75 -72 -96c-53 -29 -114 -40 -174 -40s-120 11 -173 40c-38 21 -72 53 -72 96s34 75 72 96c53 29 113 40 173 40s121 -11 174 -40 c38 -21 72 -53 72 -96z" fill="#222" transform="translate(0,3) scale(0.004, -0.004)"></path></g><g transform="translate(0,5)"></g></g><g transform="translate(0,0)"><g transform="translate(14,-1)"><path d="M213 112c-50 0 -69 -43 -69 -88c0 -77 57 -136 134 -136c50 0 69 43 69 88c0 77 -57 136 -134 136zM491 0c0 -43 -34 -75 -72 -96c-53 -29 -114 -40 -174 -40s-120 11 -173 40c-38 21 -72 53 -72 96s34 75 72 96c53 29 113 40 173 40s121 -11 174 -40 c38 -21 72 -53 72 -96z" fill="#222" transform="translate(0,3) scale(0.004, -0.004)"></path></g><g transform="translate(0,5)"><line x1="5.5" x2="8.45" y1="0" y2="0" stroke-width="0.1" stroke="#222" transform="translate(8,-3)"></line></g></g></g><g id="accidentals"><path d="M27 41l-1 -66v-11c0 -22 1 -44 4 -66c45 38 93 80 93 139c0 33 -14 67 -43 67c-31 0 -52 -30 -53 -63zM-15 -138l-12 595c8 5 18 8 27 8s19 -3 27 -8l-7 -345c25 21 58 34 91 34c52 0 89 -48 89 -102c0 -80 -86 -117 -147 -169c-15 -13 -24 -38 -45 -38 c-13 0 -23 11 -23 25z" fill="#222" transform="translate(10.7,3.5) scale(0.0040, -0.0040)"></path><path d="M27 41l-1 -66v-11c0 -22 1 -44 4 -66c45 38 93 80 93 139c0 33 -14 67 -43 67c-31 0 -52 -30 -53 -63zM-15 -138l-12 595c8 5 18 8 27 8s19 -3 27 -8l-7 -345c25 21 58 34 91 34c52 0 89 -48 89 -102c0 -80 -86 -117 -147 -169c-15 -13 -24 -38 -45 -38 c-13 0 -23 11 -23 25z" fill="#222" transform="translate(11.7,4.5) scale(0.0040, -0.0040)"></path><path d="M27 41l-1 -66v-11c0 -22 1 -44 4 -66c45 38 93 80 93 139c0 33 -14 67 -43 67c-31 0 -52 -30 -53 -63zM-15 -138l-12 595c8 5 18 8 27 8s19 -3 27 -8l-7 -345c25 21 58 34 91 34c52 0 89 -48 89 -102c0 -80 -86 -117 -147 -169c-15 -13 -24 -38 -45 -38 c-13 0 -23 11 -23 25z" fill="#222" transform="translate(12.7,3) scale(0.0040, -0.0040)"></path></g></g></g></svg>
