<svg width="100%" viewBox="7 0 14 10" style="font-family: sans-serif; font-size: 11px; max-width: 100%;"><g><g id="lines" transform="translate(0,2)"><line x1="0" x2="14" y1="0" y2="0" stroke-width="0.1" stroke="#222" transform="translate(8,1)"></line><line x1="0" x2="14" y1="0" y2="0" stroke-width="0.1" stroke="#222" transform="translate(8,2)"></line><line x1="0" x2="14" y1="0" y2="0" stroke-width="0.1" stroke="#222" transform="translate(8,3)"></line><line x1="0" x2="14" y1="0" y2="0" stroke-width="0.1" stroke="#222" transform="translate(8,4)"></line><line x1="0" x2="14" y1="0" y2="0" stroke-width="0.1" stroke="#222" transform="translate(8,5)"></line></g><g id="clef" transform="translate(0,2)"><path d="M376 262c4 0 9 1 13 1c155 0 256 -128 256 -261c0 -76 -33 -154 -107 -210c-22 -17 -47 -28 -73 -36c3 -35 5 -70 5 -105c0 -19 -1 -39 -2 -58c-7 -120 -90 -228 -208 -228c-108 0 -195 88 -195 197c0 58 53 103 112 103c54 0 95 -47 95 -103c0 -52 -43 -95 -95 -95
c-11 0 -21 2 -31 6c26 -39 68 -65 117 -65c96 0 157 92 163 191c1 18 2 37 2 55c0 31 -1 61 -4 92c-29 -5 -58 -8 -89 -8c-188 0 -333 172 -333 374c0 177 131 306 248 441c-19 62 -37 125 -45 190c-6 52 -7 104 -7 156c0 115 55 224 149 292c3 2 7 3 10 3c4 0 7 0 10 -3
c71 -84 133 -245 133 -358c0 -143 -86 -255 -180 -364c21 -68 39 -138 56 -207zM461 -203c68 24 113 95 113 164c0 90 -66 179 -173 190c24 -116 46 -231 60 -354zM74 28c0 -135 129 -247 264 -247c28 0 55 2 82 6c-14 127 -37 245 -63 364c-79 -8 -124 -61 -124 -119
c0 -44 25 -91 81 -123c5 -5 7 -10 7 -15c0 -11 -10 -22 -22 -22c-3 0 -6 1 -9 2c-80 43 -117 115 -117 185c0 88 58 174 160 197c-14 58 -29 117 -46 175c-107 -121 -213 -243 -213 -403zM408 1045c-99 -48 -162 -149 -162 -259c0 -74 18 -133 36 -194
c80 97 146 198 146 324c0 55 -4 79 -20 129z" fill="#222" transform="translate(8.8,4) scale(0.004, -0.004)"></path></g><g id="notes" transform="translate(3,0)"><g id="noteHeads"><g transform="translate(0,0)"><g transform="translate(14,3.5)"><path d="M213 112c-50 0 -69 -43 -69 -88c0 -77 57 -136 134 -136c50 0 69 43 69 88c0 77 -57 136 -134 136zM491 0c0 -43 -34 -75 -72 -96c-53 -29 -114 -40 -174 -40s-120 11 -173 40c-38 21 -72 53 -72 96s34 75 72 96c53 29 113 40 173 40s121 -11 174 -40 c38 -21 72 -53 72 -96z" fill="#222" transform="translate(0,3) scale(0.004, -0.004)"></path></g><g transform="translate(0,5)"></g></g></g><g id="accidentals"><path d="M216 -312c0 -10 -8 -19 -18 -19s-19 9 -19 19v145l-83 -31v-158c0 -10 -9 -19 -19 -19s-18 9 -18 19v145l-32 -12c-2 -1 -5 -1 -7 -1c-11 0 -20 9 -20 20v60c0 8 5 16 13 19l46 16v160l-32 -11c-2 -1 -5 -1 -7 -1c-11 0 -20 9 -20 20v60c0 8 5 15 13 18l46 17v158 c0 10 8 19 18 19s19 -9 19 -19v-145l83 31v158c0 10 9 19 19 19s18 -9 18 -19v-145l32 12c2 1 5 1 7 1c11 0 20 -9 20 -20v-60c0 -8 -5 -16 -13 -19l-46 -16v-160l32 11c2 1 5 1 7 1c11 0 20 -9 20 -20v-60c0 -8 -5 -15 -13 -18l-46 -17v-158zM96 65v-160l83 30v160z" fill="#222" transform="translate(12.6,6.5) scale(0.0040, -0.0040)"></path></g></g></g></svg>